fd_7_states
version=1
nRows=19
nColumns=17
inDegrees=yes

# SIMM Motion File Header:
name fd_7_states
datacolumns 17
datarows 19
otherdata 1
range 0.411446 0.451714
endheader
time	/jointset/r_shoulder/r_shoulder_elev/value	/jointset/r_shoulder/r_shoulder_elev/speed	/jointset/r_elbow/r_elbow_flex/value	/jointset/r_elbow/r_elbow_flex/speed	/forceset/TRIlong/activation	/forceset/TRIlong/fiber_length	/forceset/TRIlat/activation	/forceset/TRIlat/fiber_length	/forceset/TRImed/activation	/forceset/TRImed/fiber_length	/forceset/BIClong/activation	/forceset/BIClong/fiber_length	/forceset/BICshort/activation	/forceset/BICshort/fiber_length	/forceset/BRA/activation	/forceset/BRA/fiber_length
      0.411446	     -0.007226	     -0.039599	     26.069298	     26.671320	      0.020000	      0.146672	      0.052092	      0.080239	      0.050465	      0.075305	      0.166872	      0.140012	      0.034156	      0.140140	      0.020000	      0.087137
      0.413429	     -0.007313	     -0.047185	     26.122438	     26.927136	      0.020000	      0.146693	      0.052660	      0.080258	      0.050462	      0.075326	      0.168037	      0.139985	      0.034111	      0.140118	      0.020000	      0.087126
      0.418135	     -0.007558	     -0.054408	     26.250551	     27.512939	      0.020000	      0.146743	      0.053432	      0.080302	      0.050454	      0.075376	      0.169828	      0.139920	      0.034010	      0.140065	      0.020000	      0.087097
      0.420185	     -0.007668	     -0.052567	     26.307205	     27.757243	      0.020000	      0.146766	      0.053586	      0.080322	      0.050472	      0.075398	      0.170367	      0.139891	      0.033971	      0.140043	      0.020000	      0.087084
      0.421491	     -0.007736	     -0.050126	     26.343560	     27.910028	      0.020000	      0.146780	      0.053514	      0.080335	      0.050764	      0.075412	      0.171189	      0.139873	      0.034190	      0.140028	      0.020000	      0.087076
      0.423079	     -0.007812	     -0.046556	     26.388024	     28.095157	      0.020000	      0.146797	      0.053415	      0.080351	      0.051086	      0.075429	      0.172101	      0.139851	      0.034442	      0.140009	      0.020000	      0.087066
      0.427662	     -0.008006	     -0.039711	     26.518020	     28.648319	      0.020000	      0.146849	      0.053141	      0.080403	      0.051643	      0.075476	      0.173873	      0.139785	      0.034868	      0.139951	      0.020000	      0.087037
      0.429906	     -0.008097	     -0.041416	     26.582634	     28.938307	      0.020000	      0.146874	      0.053013	      0.080429	      0.051791	      0.075500	      0.174420	      0.139753	      0.034978	      0.139922	      0.020000	      0.087022
      0.430879	     -0.008138	     -0.043514	     26.610856	     29.068643	      0.020000	      0.146885	      0.053085	      0.080440	      0.051933	      0.075511	      0.174867	      0.139739	      0.034983	      0.139910	      0.020000	      0.087016
      0.431852	     -0.008182	     -0.046039	     26.639206	     29.200577	      0.020000	      0.146897	      0.053495	      0.080451	      0.052123	      0.075521	      0.175454	      0.139725	      0.034981	      0.139897	      0.020000	      0.087010
      0.436014	     -0.008381	     -0.045140	     26.761867	     29.734917	      0.020000	      0.146945	      0.054643	      0.080495	      0.052654	      0.075566	      0.177262	      0.139664	      0.034971	      0.139845	      0.020000	      0.086982
      0.439368	     -0.008498	     -0.020847	     26.862249	     30.100916	      0.020000	      0.146985	      0.055123	      0.080531	      0.052875	      0.075603	      0.178149	      0.139615	      0.034963	      0.139803	      0.020000	      0.086960
      0.440411	     -0.008513	     -0.009053	     26.893694	     30.202713	      0.020000	      0.146997	      0.055198	      0.080542	      0.052913	      0.075615	      0.178504	      0.139600	      0.034968	      0.139790	      0.020000	      0.086953
      0.441454	     -0.008516	      0.004197	     26.925243	     30.300430	      0.020000	      0.147010	      0.055129	      0.080553	      0.052897	      0.075627	      0.179593	      0.139584	      0.035014	      0.139777	      0.020000	      0.086945
      0.442802	     -0.008498	      0.021682	     26.966175	     30.426435	      0.020000	      0.147026	      0.055039	      0.080569	      0.052876	      0.075642	      0.180818	      0.139563	      0.035063	      0.139759	      0.020000	      0.086936
      0.447529	     -0.008281	      0.062928	     27.111146	     30.938691	      0.020000	      0.147084	      0.054737	      0.080626	      0.052806	      0.075700	      0.183744	      0.139488	      0.035165	      0.139698	      0.020000	      0.086904
      0.449723	     -0.008139	      0.064229	     27.179347	     31.235680	      0.020000	      0.147111	      0.054604	      0.080654	      0.052775	      0.075727	      0.184600	      0.139452	      0.035189	      0.139669	      0.020000	      0.086888
      0.450719	     -0.008077	      0.060635	     27.210522	     31.383994	      0.020000	      0.147123	      0.054622	      0.080666	      0.052895	      0.075739	      0.185123	      0.139436	      0.035358	      0.139656	      0.020000	      0.086881
      0.451714	     -0.008019	      0.054833	     27.241848	     31.539577	      0.020000	      0.147136	      0.054872	      0.080679	      0.053293	      0.075751	      0.185851	      0.139420	      0.035702	      0.139642	      0.020000	      0.086874
